<svg xmlns="http://www.w3.org/2000/svg" width="554" height="554">
  <!-- Right Side BIG Slanted Shape (last wala icon) -->
  <path fill="#e7e8e6" d="m341.969 94.566 2.937 1.657L348 98l3.064 1.736a2469 2469 0 0 1 9.873 5.639l9.36 5.36q6.45 3.694 12.91 7.374c11.974 6.825 23.934 13.673 35.817 20.657 4.722 2.772 9.456 5.516 14.235 8.187 2.382 1.331 4.759 2.672 7.135 4.014 1.68.942 3.368 1.87 5.056 2.797 6.74 3.809 12.44 7.373 15.602 14.66 1.304 4.92 1.227 9.578 1.209 14.646l.011 3.389c.01 3.75.007 7.498.003 11.248l.015 8.062q.018 9.815.012 19.629-.002 7.979.005 15.958l.001 2.295.004 4.615q.014 21.64.003 43.28c-.006 13.192.006 26.384.025 39.576q.03 20.328.024 40.654c-.002 7.606 0 15.212.014 22.818q.019 9.712.002 19.426-.01 4.953.005 9.906c.01 3.584.002 7.167-.01 10.75l.022 3.148c-.05 6.728-.66 12.742-5.01 18.2l-1.7 1.351-1.675 1.398c-6.15 3.75-12.354 3.518-19.322 3.502l-3.427.015c-3.732.014-7.464.013-11.197.01l-7.793.014q-8.165.01-16.329.002c-6.28-.006-12.56.006-18.84.027-6.056.02-12.112.023-18.168.02q-3.856 0-7.711.015c-3.596.013-7.19.006-10.785-.006l-3.21.023c-6.844-.048-12.14-.6-17.41-5.368l-1.695-2.09-1.742-2.097c-2.47-3.286-2.51-5.351-2.514-9.426l-.012-3.622.003-4.014-.01-4.237q-.011-5.841-.01-11.683-.005-6.293-.016-12.586-.02-13.77-.024-27.539-.004-8.594-.012-17.188-.019-23.782-.026-47.563v-3.077l-.002-9.272v-3.1q-.009-24.869-.046-49.738-.035-25.515-.037-51.034.001-14.332-.025-28.666-.023-12.204-.012-24.41.008-6.228-.011-12.457-.019-5.701 0-11.403a806 806 0 0 0-.02-6.082c.006-1.206.012-2.411.02-3.654-.002-1.038-.002-2.077-.003-3.147.693-5.456 3.186-9.246 7.312-12.754l2.027-1.77c6.034-4.204 12.934-3.306 19.004.148"/>

  <!-- Right Shape का inner part (dark shade) -->
  <path fill="#0000001A," d="M351 143c13.347 6.673 13.347 6.673 18.125 9.75 4.982 3.125 10.032 6.047 15.188 8.875 10.44 5.734 20.706 11.76 30.975 17.794 3.226 1.88 6.47 3.729 9.712 5.581v240h-74z"/>

  <!-- Middle Rounded Line -->
  <path fill="#e7e8e6" d="M232 95c4.235 2.791 6.02 5.358 8 10 .378 2.942.378 2.942.383 6.088l.028 3.653-.017 3.986q.007 2.128.019 4.255c.016 3.894.014 7.787.008 11.68-.002 4.2.012 8.4.025 12.601q.028 12.341.023 24.683a15356 15356 0 0 0 .017 25.84l.003 2.905c.019 18.132.018 36.264.01 54.396-.005 16.587.016 33.174.05 49.762q.05 25.547.043 51.095c-.002 9.562.003 19.124.028 28.686q.033 12.21.006 24.421c-.01 4.153-.01 8.306.01 12.459q.028 5.706-.008 11.41c-.006 2.024.012 4.048.031 6.072-.07 7.191-.623 12.583-5.659 18.008-4.776 3.893-9.882 5.098-16 5-6.498-1.191-10.14-3.553-14.112-8.78-3.08-5.593-2.445-11.847-2.41-18.06q-.008-2.13-.023-4.256c-.02-3.89-.016-7.778-.007-11.667.005-4.198-.013-8.396-.028-12.594-.026-8.22-.03-16.44-.025-24.66q.005-10.024-.008-20.047l-.004-2.883-.007-5.797c-.022-18.12-.017-36.24-.005-54.36.01-16.574-.012-33.148-.05-49.722q-.06-25.532-.048-51.065c.004-9.554-.001-19.11-.03-28.664q-.036-12.201-.002-24.402c.012-4.15.014-8.298-.01-12.447q-.031-5.702.012-11.403c.008-2.02-.013-4.04-.036-6.06.093-7.854 1.213-13.355 6.793-19.133 7.507-5.472 14.781-5.342 23-1"/>

  <!-- Left Rounded Line -->
  <path fill="#e7e8e6" d="M118.688 93.063C123.592 95.93 127.186 99.558 129 105c.096 1.905.133 3.812.137 5.72l.015 3.633.002 4.014.013 4.247q.017 5.85.022 11.7.01 6.304.029 12.607.034 15.231.052 30.462l.011 8.602a74278 74278 0 0 1 .071 68.88c.013 16.607.046 33.214.088 49.821q.063 25.567.071 51.136c.004 9.572.015 19.144.048 28.716q.044 12.228.028 24.455c-.005 4.159-.002 8.318.022 12.477q.033 5.713.003 11.427c-.004 2.027.017 4.054.038 6.08-.063 7.235-.644 12.539-5.65 18.023-5.674 4.61-10.778 5.623-18 5-6.094-2.732-10.16-6.19-13.12-12.322-.99-3.013-1.134-5.424-1.14-8.594l-.021-3.612.007-3.958-.016-4.214c-.014-3.859-.016-7.718-.015-11.578-.002-4.162-.015-8.324-.027-12.487-.022-9.1-.03-18.202-.035-27.303q-.006-8.526-.017-17.05a44593 44593 0 0 1-.042-62.53c-.004-16.442-.03-32.883-.068-49.324q-.057-25.322-.058-50.644c0-9.478-.009-18.956-.038-28.433q-.038-12.105-.017-24.211c.008-4.117.007-8.233-.016-12.35q-.03-5.656.003-11.314c.005-2.004-.014-4.008-.035-6.013.07-7.457.897-13.118 5.655-19.063 6.345-5.705 13.771-6.219 21.688-3.937"/>
</svg>
